<?xml version="1.0" encoding="iso-8859-1"?>
<!-- Generator: Adobe Illustrator 19.0.0, SVG Export Plug-In . SVG Version: 6.00 Build 0)  -->
<svg version="1.1" id="Capa_1" xmlns="http://www.w3.org/2000/svg" xmlns:xlink="http://www.w3.org/1999/xlink" x="0px" y="0px"
	 viewBox="0 0 512 512" style="enable-background:new 0 0 512 512;" xml:space="preserve">
<g>
	<g>
		<path d="M460.8,0H102.4C87.04,0,76.8,10.24,76.8,25.6v76.8H51.2c-15.36,0-25.6,10.24-25.6,25.6s10.24,25.6,25.6,25.6h25.6v204.8
			H51.2c-15.36,0-25.6,10.24-25.6,25.6s10.24,25.6,25.6,25.6h25.6v76.8c0,15.36,10.24,25.6,25.6,25.6h358.4
			c15.36,0,25.6-10.24,25.6-25.6V25.6C486.4,10.24,476.16,0,460.8,0z M332.8,256h-128c-15.36,0-25.6-10.24-25.6-25.6
			c0-15.36,10.24-25.6,25.6-25.6h128c15.36,0,25.6,10.24,25.6,25.6C358.4,245.76,348.16,256,332.8,256z M409.6,153.6H204.8
			c-15.36,0-25.6-10.24-25.6-25.6s10.24-25.6,25.6-25.6h204.8c15.36,0,25.6,10.24,25.6,25.6S424.96,153.6,409.6,153.6z"/>
	</g>
</g>
<g>
</g>
<g>
</g>
<g>
</g>
<g>
</g>
<g>
</g>
<g>
</g>
<g>
</g>
<g>
</g>
<g>
</g>
<g>
</g>
<g>
</g>
<g>
</g>
<g>
</g>
<g>
</g>
<g>
</g>
</svg>
