<svg width="720" height="425" viewBox="0 0 720 425" fill="none" xmlns="http://www.w3.org/2000/svg">
<path d="M444.102 126.783C448.725 131.669 452.433 138.168 455.225 146.281C458.016 154.307 459.412 162.377 459.412 170.49C459.412 178.516 458.889 185.234 457.842 190.643C469.794 188.811 482.007 184.187 494.482 176.771V188.811C482.705 198.058 469.052 204.208 453.523 207.262C448.202 221.918 439.696 234.96 428.006 246.389C416.403 257.817 403.404 266.541 389.01 272.561C374.615 278.493 360.133 281.459 345.564 281.459C317.473 281.459 296.012 270.685 281.182 249.137C270.451 233.608 265.086 212.932 265.086 187.109C265.086 165.474 271.978 145.016 285.762 125.736C300.68 104.799 319.785 90.2734 343.078 82.1602C355.902 77.6237 369.424 75.3555 383.645 75.3555C388.966 75.3555 394.942 75.9225 401.572 77.0566L401.049 90.4043C396.949 89.7064 390.973 89.3574 383.121 89.3574C375.357 89.3574 366.458 91.1458 356.426 94.7227C346.48 98.2122 337.8 102.923 330.385 108.855C323.057 114.701 316.688 121.331 311.279 128.746C300.374 143.839 294.922 159.629 294.922 176.117C294.922 206.04 304.475 227.763 323.58 241.285C334.747 249.137 348.094 253.062 363.623 253.062C379.152 253.062 393.11 249.006 405.498 240.893C417.886 232.692 427.57 222.092 434.549 209.094H432.848C414.178 209.094 398.301 204.47 385.215 195.223C378.846 190.686 373.743 184.798 369.904 177.557C366.153 170.229 364.277 161.374 364.277 150.992C364.277 140.611 368.247 131.494 376.186 123.643C384.124 115.791 395.814 111.865 411.256 111.865C423.644 111.865 434.592 116.838 444.102 126.783ZM386.785 143.271C386.785 157.143 391.932 168.658 402.227 177.818C412.521 186.979 425.607 191.689 441.484 191.951C443.84 184.536 445.018 177.033 445.018 169.443C445.018 156.968 441.79 146.717 435.334 138.691C428.965 130.665 419.762 126.652 407.723 126.652C400.656 126.652 395.378 128.135 391.889 131.102C388.486 134.068 386.785 138.124 386.785 143.271Z" fill="#408AFF"/>
<path d="M242.23 360.35C237.61 355.357 235.3 349.22 235.3 341.94C235.3 334.66 237.61 328.547 242.23 323.6C246.897 318.607 252.777 316.11 259.87 316.11C266.963 316.11 272.843 318.607 277.51 323.6C282.177 328.547 284.51 334.66 284.51 341.94C284.51 349.22 282.177 355.357 277.51 360.35C272.843 365.343 266.963 367.84 259.87 367.84C252.777 367.84 246.897 365.343 242.23 360.35ZM244.75 325.77C240.877 330.11 238.94 335.5 238.94 341.94C238.94 348.38 240.877 353.793 244.75 358.18C248.67 362.567 253.71 364.76 259.87 364.76C266.077 364.76 271.117 362.567 274.99 358.18C278.91 353.793 280.87 348.38 280.87 341.94C280.87 335.5 278.91 330.11 274.99 325.77C271.117 321.383 266.077 319.19 259.87 319.19C253.663 319.19 248.623 321.383 244.75 325.77ZM298.175 326.948C301.11 326.7 304.127 326.576 307.227 326.576C310.327 326.576 312.972 327.32 315.163 328.808C317.395 330.296 318.511 332.466 318.511 335.318C318.511 337.467 317.932 339.451 316.775 341.27C315.618 343.089 314.212 344.473 312.559 345.424C315.246 346.209 317.478 347.615 319.255 349.64C321.032 351.665 321.921 353.959 321.921 356.522C321.921 360.077 320.784 362.763 318.511 364.582C316.279 366.401 313.117 367.31 309.025 367.31C304.933 367.31 301.316 367.165 298.175 366.876V326.948ZM303.817 346.664L301.027 346.726V364.52C302.804 364.685 305.677 364.768 309.645 364.768C312.332 364.768 314.543 364.024 316.279 362.536C318.056 361.007 318.945 359.105 318.945 356.832C318.945 354.517 318.056 352.513 316.279 350.818C314.543 349.082 312.27 347.863 309.459 347.16C308.012 346.829 306.132 346.664 303.817 346.664ZM315.721 335.256C315.721 333.231 314.874 331.681 313.179 330.606C311.484 329.49 309.459 328.932 307.103 328.932C304.747 328.932 302.722 328.994 301.027 329.118V344.308C304.623 344.308 307.496 344.411 309.645 344.618C311.257 343.75 312.662 342.489 313.861 340.836C315.101 339.141 315.721 337.281 315.721 335.256ZM350.664 367.62C344.918 367.62 340.103 365.615 336.218 361.606C332.332 357.597 330.39 352.699 330.39 346.912C330.39 341.084 332.332 336.165 336.218 332.156C340.103 328.147 344.918 326.142 350.664 326.142C356.409 326.142 361.224 328.147 365.11 332.156C368.995 336.165 370.938 341.084 370.938 346.912C370.938 352.699 368.995 357.597 365.11 361.606C361.224 365.615 356.409 367.62 350.664 367.62ZM350.664 328.684C345.704 328.684 341.57 330.441 338.264 333.954C334.998 337.467 333.366 341.787 333.366 346.912C333.366 351.996 334.998 356.295 338.264 359.808C341.57 363.28 345.704 365.016 350.664 365.016C355.665 365.016 359.798 363.28 363.064 359.808C366.329 356.295 367.962 351.996 367.962 346.912C367.962 341.787 366.329 337.467 363.064 333.954C359.798 330.441 355.665 328.684 350.664 328.684ZM401.16 367.62C395.414 367.62 390.599 365.615 386.714 361.606C382.828 357.597 380.886 352.699 380.886 346.912C380.886 341.084 382.828 336.165 386.714 332.156C390.599 328.147 395.414 326.142 401.16 326.142C406.905 326.142 411.72 328.147 415.606 332.156C419.491 336.165 421.434 341.084 421.434 346.912C421.434 352.699 419.491 357.597 415.606 361.606C411.72 365.615 406.905 367.62 401.16 367.62ZM401.16 328.684C396.2 328.684 392.066 330.441 388.76 333.954C385.494 337.467 383.862 341.787 383.862 346.912C383.862 351.996 385.494 356.295 388.76 359.808C392.066 363.28 396.2 365.016 401.16 365.016C406.161 365.016 410.294 363.28 413.56 359.808C416.825 356.295 418.458 351.996 418.458 346.912C418.458 341.787 416.825 337.467 413.56 333.954C410.294 330.441 406.161 328.684 401.16 328.684ZM458.29 326.762L441.116 346.168C447.895 354.393 452.524 359.601 455.004 361.792C457.525 363.983 460.026 365.223 462.506 365.512L462.444 367.434C460.129 367.393 458.249 367.062 456.802 366.442C455.355 365.781 454.074 364.913 452.958 363.838C451.842 362.763 449.445 360.139 445.766 355.964C442.129 351.748 439.401 348.524 437.582 346.292L454.88 326.762H458.29ZM436.714 326.762V367H433.862V326.762H436.714ZM477.101 328.498C474.869 328.498 473.05 329.035 471.645 330.11C470.24 331.185 469.537 332.693 469.537 334.636C469.537 336.868 470.467 338.873 472.327 340.65C473.65 341.931 475.344 343.295 477.411 344.742C479.519 346.147 480.966 347.16 481.751 347.78C482.536 348.4 483.487 349.247 484.603 350.322C486.628 352.347 487.641 354.683 487.641 357.328C487.641 360.759 486.484 363.363 484.169 365.14C481.896 366.876 478.692 367.744 474.559 367.744C470.467 367.744 467.036 366.669 464.267 364.52L465.755 362.35C468.566 364.251 471.542 365.202 474.683 365.202C477.824 365.202 480.263 364.541 481.999 363.218C483.776 361.895 484.665 360.035 484.665 357.638C484.665 355.571 483.776 353.67 481.999 351.934C480.759 350.694 479.085 349.351 476.977 347.904C474.91 346.457 473.464 345.424 472.637 344.804C471.81 344.143 470.839 343.275 469.723 342.2C467.615 340.092 466.561 337.653 466.561 334.884C466.561 332.115 467.532 329.945 469.475 328.374C471.459 326.803 474.187 326.018 477.659 326.018C481.131 326.018 484.252 326.7 487.021 328.064L485.967 330.358C483.404 329.118 480.449 328.498 477.101 328.498Z" fill="#333333"/>
<path d="M7.182 413.39C4.674 410.679 3.42 407.348 3.42 403.396C3.42 399.444 4.674 396.125 7.182 393.44C9.71533 390.729 12.9073 389.374 16.758 389.374C20.6087 389.374 23.8007 390.729 26.334 393.44C28.8673 396.125 30.134 399.444 30.134 403.396C30.134 407.348 28.8673 410.679 26.334 413.39C23.8007 416.101 20.6087 417.456 16.758 417.456C12.9073 417.456 9.71533 416.101 7.182 413.39ZM8.55 394.618C6.44733 396.974 5.396 399.9 5.396 403.396C5.396 406.892 6.44733 409.831 8.55 412.212C10.678 414.593 13.414 415.784 16.758 415.784C20.1273 415.784 22.8633 414.593 24.966 412.212C27.094 409.831 28.158 406.892 28.158 403.396C28.158 399.9 27.094 396.974 24.966 394.618C22.8633 392.237 20.1273 391.046 16.758 391.046C13.3887 391.046 10.6527 392.237 8.55 394.618ZM38.5629 417V389.83H40.3869V415.328H52.8889V417H38.5629ZM67.4524 415.67C71.0244 415.67 73.887 414.707 76.0404 412.782C78.219 410.831 79.3084 407.905 79.3084 404.004C79.3084 400.103 78.0797 396.999 75.6224 394.694C73.1904 392.389 70.1757 391.236 66.5784 391.236C64.273 391.236 62.2717 391.299 60.5744 391.426V415.366C62.221 415.569 64.5137 415.67 67.4524 415.67ZM66.5784 389.564C70.7584 389.564 74.2544 390.869 77.0664 393.478C79.8784 396.062 81.2844 399.583 81.2844 404.042C81.2844 406.297 80.917 408.298 80.1824 410.046C79.473 411.769 78.485 413.149 77.2184 414.188C74.609 416.291 71.3537 417.342 67.4524 417.342C64.8937 417.342 61.993 417.203 58.7504 416.924V389.83C61.3344 389.653 63.9437 389.564 66.5784 389.564ZM103.43 389.906C105.406 389.754 107.42 389.678 109.472 389.678C111.549 389.678 113.335 390.185 114.83 391.198C116.35 392.211 117.11 393.681 117.11 395.606C117.11 397.05 116.705 398.393 115.894 399.634C115.109 400.875 114.159 401.813 113.044 402.446C114.843 403.003 116.35 403.966 117.566 405.334C118.782 406.702 119.39 408.235 119.39 409.932C119.39 412.313 118.63 414.125 117.11 415.366C115.615 416.607 113.551 417.228 110.916 417.228C108.307 417.228 105.811 417.127 103.43 416.924V389.906ZM111.144 415.594C112.993 415.594 114.513 415.087 115.704 414.074C116.895 413.035 117.49 411.718 117.49 410.122C117.49 408.526 116.907 407.145 115.742 405.98C114.602 404.815 113.031 404.017 111.03 403.586C110.093 403.383 109.003 403.282 107.762 403.282C106.546 403.282 105.71 403.282 105.254 403.282V415.404C106.369 415.531 108.332 415.594 111.144 415.594ZM115.286 395.568C115.286 394.175 114.703 393.098 113.538 392.338C112.398 391.578 111.106 391.198 109.662 391.198C108.243 391.198 106.774 391.249 105.254 391.35V401.724C105.583 401.724 106.204 401.724 107.116 401.724C108.028 401.724 109.371 401.8 111.144 401.952C112.284 401.344 113.259 400.47 114.07 399.33C114.881 398.19 115.286 396.936 115.286 395.568ZM129.495 413.39C126.987 410.679 125.733 407.348 125.733 403.396C125.733 399.444 126.987 396.125 129.495 393.44C132.028 390.729 135.22 389.374 139.071 389.374C142.921 389.374 146.113 390.729 148.647 393.44C151.18 396.125 152.447 399.444 152.447 403.396C152.447 407.348 151.18 410.679 148.647 413.39C146.113 416.101 142.921 417.456 139.071 417.456C135.22 417.456 132.028 416.101 129.495 413.39ZM130.863 394.618C128.76 396.974 127.709 399.9 127.709 403.396C127.709 406.892 128.76 409.831 130.863 412.212C132.991 414.593 135.727 415.784 139.071 415.784C142.44 415.784 145.176 414.593 147.279 412.212C149.407 409.831 150.471 406.892 150.471 403.396C150.471 399.9 149.407 396.974 147.279 394.618C145.176 392.237 142.44 391.046 139.071 391.046C135.701 391.046 132.965 392.237 130.863 394.618ZM163.041 413.39C160.533 410.679 159.279 407.348 159.279 403.396C159.279 399.444 160.533 396.125 163.041 393.44C165.575 390.729 168.767 389.374 172.617 389.374C176.468 389.374 179.66 390.729 182.193 393.44C184.727 396.125 185.993 399.444 185.993 403.396C185.993 407.348 184.727 410.679 182.193 413.39C179.66 416.101 176.468 417.456 172.617 417.456C168.767 417.456 165.575 416.101 163.041 413.39ZM164.409 394.618C162.307 396.974 161.255 399.9 161.255 403.396C161.255 406.892 162.307 409.831 164.409 412.212C166.537 414.593 169.273 415.784 172.617 415.784C175.987 415.784 178.723 414.593 180.825 412.212C182.953 409.831 184.017 406.892 184.017 403.396C184.017 399.9 182.953 396.974 180.825 394.618C178.723 392.237 175.987 391.046 172.617 391.046C169.248 391.046 166.512 392.237 164.409 394.618ZM210.762 389.83L199.21 402.978C200.756 404.827 202.529 406.892 204.53 409.172C206.557 411.452 207.862 412.858 208.444 413.39C209.052 413.922 209.521 414.327 209.85 414.606C210.205 414.859 210.737 415.151 211.446 415.48C212.156 415.784 212.916 415.987 213.726 416.088L213.688 417.304C212.168 417.279 210.914 417.051 209.926 416.62C208.938 416.164 208.077 415.581 207.342 414.872C206.608 414.137 204.999 412.364 202.516 409.552C200.059 406.715 198.21 404.549 196.968 403.054L208.634 389.83H210.762ZM196.246 389.83V417H194.422V389.83H196.246ZM229.729 392.224C227.879 391.439 226.043 391.046 224.219 391.046C220.52 391.046 218.671 392.414 218.671 395.15C218.671 396.341 219.089 397.455 219.925 398.494C220.761 399.507 221.774 400.419 222.965 401.23C224.155 402.015 225.346 402.826 226.537 403.662C227.727 404.498 228.741 405.499 229.577 406.664C230.413 407.829 230.831 409.096 230.831 410.464C230.831 412.769 230.058 414.517 228.513 415.708C226.967 416.873 224.827 417.456 222.091 417.456C219.38 417.456 217.062 416.759 215.137 415.366L216.049 413.998C217.873 415.189 219.874 415.784 222.053 415.784C224.231 415.784 225.903 415.353 227.069 414.492C228.234 413.605 228.817 412.339 228.817 410.692C228.817 409.552 228.399 408.475 227.563 407.462C226.727 406.423 225.713 405.499 224.523 404.688C223.332 403.852 222.141 403.003 220.951 402.142C219.76 401.281 218.747 400.255 217.911 399.064C217.075 397.873 216.657 396.594 216.657 395.226C216.657 393.427 217.315 392.009 218.633 390.97C219.975 389.906 221.774 389.374 224.029 389.374C226.309 389.374 228.424 389.83 230.375 390.742L229.729 392.224ZM252.461 417V389.83H266.331V391.426H254.285V401.42H265.305V402.978H254.285V417H252.461ZM275.26 413.39C272.752 410.679 271.498 407.348 271.498 403.396C271.498 399.444 272.752 396.125 275.26 393.44C277.793 390.729 280.985 389.374 284.836 389.374C288.687 389.374 291.879 390.729 294.412 393.44C296.945 396.125 298.212 399.444 298.212 403.396C298.212 407.348 296.945 410.679 294.412 413.39C291.879 416.101 288.687 417.456 284.836 417.456C280.985 417.456 277.793 416.101 275.26 413.39ZM276.628 394.618C274.525 396.974 273.474 399.9 273.474 403.396C273.474 406.892 274.525 409.831 276.628 412.212C278.756 414.593 281.492 415.784 284.836 415.784C288.205 415.784 290.941 414.593 293.044 412.212C295.172 409.831 296.236 406.892 296.236 403.396C296.236 399.9 295.172 396.974 293.044 394.618C290.941 392.237 288.205 391.046 284.836 391.046C281.467 391.046 278.731 392.237 276.628 394.618ZM306.185 417V392.452C308.364 392.275 310.213 392.186 311.733 392.186C314.064 392.186 315.989 392.794 317.509 394.01C319.029 395.201 319.789 396.911 319.789 399.14C319.789 400.635 319.358 402.015 318.497 403.282C317.636 404.549 316.66 405.575 315.571 406.36C318.586 410.363 320.448 412.757 321.157 413.542C322.601 415.037 324.172 415.885 325.869 416.088L325.831 417.266C324.412 417.241 323.26 417.038 322.373 416.658C321.486 416.253 320.6 415.581 319.713 414.644C318.852 413.707 316.939 411.186 313.975 407.082C311.923 407.082 309.909 407.019 307.933 406.892V417H306.185ZM313.025 405.638C314.013 405.638 315.077 404.979 316.217 403.662C317.357 402.345 317.927 400.812 317.927 399.064C317.927 397.316 317.332 395.986 316.141 395.074C314.95 394.162 313.405 393.706 311.505 393.706C310.492 393.706 309.301 393.757 307.933 393.858V405.448C309.757 405.575 311.454 405.638 313.025 405.638ZM345.202 394.162L345.278 397.392V417H343.453V389.602H344.29L362.188 410.236C363.404 411.68 364.341 412.833 365 413.694C364.898 412.478 364.848 411.085 364.848 409.514V389.83H366.672V417.228H365.836L347.596 396.214C346.329 394.77 345.518 393.807 345.164 393.326L345.202 394.162ZM376.703 417V389.83H389.32V391.426H378.528V401.42H388.294V402.978H378.528V415.404H389.738V417H376.703ZM404.069 410.426L411.935 390.362H413.037L419.915 410.578C420.447 412.174 420.802 413.327 420.979 414.036C421.182 413.2 421.537 412.06 422.043 410.616L429.035 389.83H430.935L421.473 417.228H420.409L413.379 397.088C413.278 396.759 413.164 396.429 413.037 396.1C412.936 395.771 412.847 395.479 412.771 395.226C412.695 394.973 412.619 394.757 412.543 394.58L412.391 394.124C412.366 393.997 412.353 393.921 412.353 393.896C412.049 394.808 411.657 395.859 411.175 397.05L403.233 417.228H402.169L392.631 389.83H394.645L401.599 410.274C401.929 411.186 402.195 412.009 402.397 412.744C402.625 413.479 402.752 413.884 402.777 413.96C402.904 413.377 403.335 412.199 404.069 410.426ZM461.92 391.046C458.602 391.046 455.891 392.237 453.788 394.618C451.686 396.999 450.634 399.925 450.634 403.396C450.634 406.841 451.825 409.767 454.206 412.174C456.588 414.581 459.488 415.784 462.908 415.784C465.847 415.784 468.292 415.379 470.242 414.568V403.396H472.066V415.404C469.862 416.772 466.772 417.456 462.794 417.456C458.842 417.456 455.498 416.101 452.762 413.39C450.026 410.654 448.658 407.323 448.658 403.396C448.658 399.444 449.9 396.125 452.382 393.44C454.865 390.729 458.044 389.374 461.92 389.374C464.96 389.374 468.038 389.881 471.154 390.894L470.66 392.414C467.62 391.502 464.707 391.046 461.92 391.046ZM481.5 417V389.83H494.116V391.426H483.324V401.42H493.09V402.978H483.324V415.404H494.534V417H481.5ZM503.584 394.162L503.66 397.392V417H501.836V389.602H502.672L520.57 410.236C521.786 411.68 522.724 412.833 523.382 413.694C523.281 412.478 523.23 411.085 523.23 409.514V389.83H525.054V417.228H524.218L505.978 396.214C504.712 394.77 503.901 393.807 503.546 393.326L503.584 394.162ZM535.086 417V389.83H547.702V391.426H536.91V401.42H546.676V402.978H536.91V415.404H548.12V417H535.086ZM555.422 417V389.944C557.829 389.767 559.843 389.678 561.464 389.678C564.048 389.678 566.176 390.349 567.848 391.692C569.52 393.009 570.356 394.884 570.356 397.316C570.356 398.963 569.875 400.495 568.912 401.914C567.95 403.333 566.873 404.46 565.682 405.296C566.62 406.588 567.772 408.133 569.14 409.932C570.534 411.705 571.433 412.82 571.838 413.276C573.384 414.923 575.132 415.86 577.082 416.088L577.044 417.304C575.499 417.279 574.245 417.051 573.282 416.62C572.32 416.164 571.395 415.48 570.508 414.568C569.647 413.656 567.481 410.819 564.01 406.056C561.528 406.056 559.273 405.98 557.246 405.828V417H555.422ZM562.908 404.536C564.023 404.536 565.214 403.801 566.48 402.332C567.747 400.863 568.38 399.165 568.38 397.24C568.38 395.289 567.722 393.82 566.404 392.832C565.112 391.819 563.39 391.312 561.236 391.312C560.096 391.312 558.766 391.363 557.246 391.464V404.346C559.273 404.473 561.16 404.536 562.908 404.536ZM581.878 407.576L577.964 417H576.026L587.464 389.64H588.528L600.004 417H597.952L594.038 407.576H581.878ZM587.882 392.68C587.857 392.705 587.806 392.857 587.73 393.136C587.375 394.225 587.033 395.15 586.704 395.91L582.524 406.018H593.392L589.212 395.948C588.325 394.023 587.882 392.933 587.882 392.68ZM607.753 391.426H598.557V389.83H618.773V391.426H609.577V417H607.753V391.426ZM624.631 417V389.83H626.455V417H624.631ZM638.635 413.39C636.127 410.679 634.873 407.348 634.873 403.396C634.873 399.444 636.127 396.125 638.635 393.44C641.168 390.729 644.36 389.374 648.211 389.374C652.062 389.374 655.254 390.729 657.787 393.44C660.32 396.125 661.587 399.444 661.587 403.396C661.587 407.348 660.32 410.679 657.787 413.39C655.254 416.101 652.062 417.456 648.211 417.456C644.36 417.456 641.168 416.101 638.635 413.39ZM640.003 394.618C637.9 396.974 636.849 399.9 636.849 403.396C636.849 406.892 637.9 409.831 640.003 412.212C642.131 414.593 644.867 415.784 648.211 415.784C651.58 415.784 654.316 414.593 656.419 412.212C658.547 409.831 659.611 406.892 659.611 403.396C659.611 399.9 658.547 396.974 656.419 394.618C654.316 392.237 651.58 391.046 648.211 391.046C644.842 391.046 642.106 392.237 640.003 394.618ZM671.764 394.162L671.84 397.392V417H670.016V389.602H670.852L688.75 410.236C689.966 411.68 690.903 412.833 691.562 413.694C691.461 412.478 691.41 411.085 691.41 409.514V389.83H693.234V417.228H692.398L674.158 396.214C672.891 394.77 672.081 393.807 671.726 393.326L671.764 394.162ZM715.008 392.224C713.159 391.439 711.322 391.046 709.498 391.046C705.799 391.046 703.95 392.414 703.95 395.15C703.95 396.341 704.368 397.455 705.204 398.494C706.04 399.507 707.053 400.419 708.244 401.23C709.435 402.015 710.625 402.826 711.816 403.662C713.007 404.498 714.02 405.499 714.856 406.664C715.692 407.829 716.11 409.096 716.11 410.464C716.11 412.769 715.337 414.517 713.792 415.708C712.247 416.873 710.106 417.456 707.37 417.456C704.659 417.456 702.341 416.759 700.416 415.366L701.328 413.998C703.152 415.189 705.153 415.784 707.332 415.784C709.511 415.784 711.183 415.353 712.348 414.492C713.513 413.605 714.096 412.339 714.096 410.692C714.096 409.552 713.678 408.475 712.842 407.462C712.006 406.423 710.993 405.499 709.802 404.688C708.611 403.852 707.421 403.003 706.23 402.142C705.039 401.281 704.026 400.255 703.19 399.064C702.354 397.873 701.936 396.594 701.936 395.226C701.936 393.427 702.595 392.009 703.912 390.97C705.255 389.906 707.053 389.374 709.308 389.374C711.588 389.374 713.703 389.83 715.654 390.742L715.008 392.224Z" fill="#333333"/>
</svg>
