<svg width="420" height="378" viewBox="0 0 420 378" fill="none" xmlns="http://www.w3.org/2000/svg">
<path d="M192.102 126.783C196.725 131.669 200.433 138.168 203.225 146.281C206.016 154.307 207.412 162.377 207.412 170.49C207.412 178.516 206.889 185.234 205.842 190.643C217.794 188.811 230.007 184.187 242.482 176.771V188.811C230.705 198.058 217.052 204.208 201.523 207.262C196.202 221.918 187.696 234.96 176.006 246.389C164.403 257.817 151.404 266.541 137.01 272.561C122.615 278.493 108.133 281.459 93.5645 281.459C65.4733 281.459 44.0124 270.685 29.1816 249.137C18.4512 233.608 13.0859 212.932 13.0859 187.109C13.0859 165.474 19.9779 145.016 33.7617 125.736C48.6797 104.799 67.7852 90.2734 91.0781 82.1602C103.902 77.6237 117.424 75.3555 131.645 75.3555C136.966 75.3555 142.942 75.9225 149.572 77.0566L149.049 90.4043C144.949 89.7064 138.973 89.3574 131.121 89.3574C123.357 89.3574 114.458 91.1458 104.426 94.7227C94.4805 98.2122 85.8001 102.923 78.3848 108.855C71.0566 114.701 64.6882 121.331 59.2793 128.746C48.3743 143.839 42.9219 159.629 42.9219 176.117C42.9219 206.04 52.4746 227.763 71.5801 241.285C82.7467 249.137 96.0944 253.062 111.623 253.062C127.152 253.062 141.11 249.006 153.498 240.893C165.886 232.692 175.57 222.092 182.549 209.094H180.848C162.178 209.094 146.301 204.47 133.215 195.223C126.846 190.686 121.743 184.798 117.904 177.557C114.153 170.229 112.277 161.374 112.277 150.992C112.277 140.611 116.247 131.494 124.186 123.643C132.124 115.791 143.814 111.865 159.256 111.865C171.644 111.865 182.592 116.838 192.102 126.783ZM134.785 143.271C134.785 157.143 139.932 168.658 150.227 177.818C160.521 186.979 173.607 191.689 189.484 191.951C191.84 184.536 193.018 177.033 193.018 169.443C193.018 156.968 189.79 146.717 183.334 138.691C176.965 130.665 167.762 126.652 155.723 126.652C148.656 126.652 143.378 128.135 139.889 131.102C136.486 134.068 134.785 138.124 134.785 143.271Z" fill="#408AFF"/>
<path d="M222.996 232.883C226.349 230.734 229.751 227.105 233.201 221.994C236.652 216.851 238.377 212.749 238.377 209.689C238.377 207.508 237.286 206.418 235.105 206.418C234.064 206.418 232.534 208.387 230.516 212.326C228.53 216.232 226.772 220.334 225.242 224.631C223.745 228.895 222.996 231.646 222.996 232.883ZM210.008 245.334C210.496 243.348 211.489 239.735 212.986 234.494C214.516 229.221 215.574 225.542 216.16 223.459C216.746 221.343 217.739 218.967 219.139 216.33C220.571 213.693 222.247 211.203 224.168 208.859C226.089 206.516 228.286 204.595 230.76 203.098C233.266 201.568 235.74 200.803 238.182 200.803C243.195 200.803 245.701 202.935 245.701 207.199C245.701 215.5 237.563 227.17 221.287 242.209C221.027 243.251 220.522 245.188 219.773 248.02C219.057 250.819 218.504 253.065 218.113 254.758C216.909 259.641 216.307 263.547 216.307 266.477C216.307 271.685 218.211 274.289 222.02 274.289C224.298 274.289 226.691 273.361 229.197 271.506C231.736 269.618 233.836 267.29 235.496 264.523C237.156 261.757 237.986 259.152 237.986 256.711C237.986 251.372 233.82 248.703 225.486 248.703C225.942 246.913 227.391 245.041 229.832 243.088C232.306 241.102 234.454 240.109 236.277 240.109C239.76 240.109 242.348 241.118 244.041 243.137C245.734 245.122 246.58 247.873 246.58 251.389C246.58 254.872 246.027 258.387 244.92 261.936C243.846 265.484 242.039 268.299 239.5 270.383C241.876 269.113 244.969 266.607 248.777 262.863C252.586 259.087 254.832 256.874 255.516 256.223L255.418 261.789C251.251 265.956 248.24 268.706 246.385 270.041C244.529 271.343 242.837 272.499 241.307 273.508C239.809 274.517 238.442 275.314 237.205 275.9C235.968 276.454 234.487 277.089 232.762 277.805C231.036 278.488 229.344 279.025 227.684 279.416C223.875 280.327 220.457 280.783 217.43 280.783C214.435 280.783 212.205 280.523 210.74 280.002C209.308 279.514 208.25 278.798 207.566 277.854C206.395 276.226 205.809 274.094 205.809 271.457C205.809 268.788 205.955 266.118 206.248 263.449C206.541 260.747 207.111 257.541 207.957 253.83C208.836 250.119 209.52 247.287 210.008 245.334ZM282.664 237.619C282.664 238.563 282.306 239.263 281.59 239.719C275.112 239.719 270.164 241.574 266.746 245.285C263.556 248.801 261.961 252.756 261.961 257.15C261.961 261.512 262.921 264.995 264.842 267.6C266.795 270.204 269.171 271.506 271.971 271.506C274.77 271.506 277.472 270.041 280.076 267.111C277.635 265.581 275.747 263.563 274.412 261.057C273.11 258.55 272.459 256.011 272.459 253.439C272.459 250.835 273.24 248.736 274.803 247.141C276.365 245.513 278.628 244.699 281.59 244.699C284.552 244.699 286.701 245.497 288.035 247.092C289.402 248.687 290.086 250.64 290.086 252.951C290.086 257.704 288.572 261.919 285.545 265.598C286.359 265.923 287.059 266.086 287.645 266.086C288.23 266.086 288.833 265.956 289.451 265.695C290.102 265.402 290.835 264.914 291.648 264.23C292.462 263.514 293.178 262.847 293.797 262.229C294.415 261.61 295.311 260.682 296.482 259.445C297.654 258.208 298.647 257.199 299.461 256.418V261.789C296.759 264.654 294.562 266.688 292.869 267.893C291.209 269.097 289.565 269.699 287.938 269.699C286.342 269.699 284.878 269.471 283.543 269.016C281.036 272.076 278.058 274.582 274.607 276.535C271.189 278.456 267.641 279.416 263.963 279.416C258.689 279.416 254.93 276.926 252.684 271.945C251.414 269.146 250.779 266.005 250.779 262.521C250.779 254.611 253.579 248.378 259.178 243.82C264.809 239.263 272.28 236.984 281.59 236.984C282.241 236.984 282.599 237.196 282.664 237.619ZM285.447 253.879C285.447 250.884 284.113 249.387 281.443 249.387C278.807 249.387 277.488 250.965 277.488 254.123C277.488 255.783 277.928 257.508 278.807 259.299C279.718 261.057 280.939 262.456 282.469 263.498C283.12 262.424 283.771 260.943 284.422 259.055C285.105 257.134 285.447 255.409 285.447 253.879ZM327 237.619C327 238.563 326.642 239.263 325.926 239.719C319.448 239.719 314.5 241.574 311.082 245.285C307.892 248.801 306.297 252.756 306.297 257.15C306.297 261.512 307.257 264.995 309.178 267.6C311.131 270.204 313.507 271.506 316.307 271.506C319.106 271.506 321.808 270.041 324.412 267.111C321.971 265.581 320.083 263.563 318.748 261.057C317.446 258.55 316.795 256.011 316.795 253.439C316.795 250.835 317.576 248.736 319.139 247.141C320.701 245.513 322.964 244.699 325.926 244.699C328.888 244.699 331.036 245.497 332.371 247.092C333.738 248.687 334.422 250.64 334.422 252.951C334.422 257.704 332.908 261.919 329.881 265.598C330.695 265.923 331.395 266.086 331.98 266.086C332.566 266.086 333.169 265.956 333.787 265.695C334.438 265.402 335.171 264.914 335.984 264.23C336.798 263.514 337.514 262.847 338.133 262.229C338.751 261.61 339.646 260.682 340.818 259.445C341.99 258.208 342.983 257.199 343.797 256.418V261.789C341.095 264.654 338.898 266.688 337.205 267.893C335.545 269.097 333.901 269.699 332.273 269.699C330.678 269.699 329.214 269.471 327.879 269.016C325.372 272.076 322.394 274.582 318.943 276.535C315.525 278.456 311.977 279.416 308.299 279.416C303.025 279.416 299.266 276.926 297.02 271.945C295.75 269.146 295.115 266.005 295.115 262.521C295.115 254.611 297.915 248.378 303.514 243.82C309.145 239.263 316.616 236.984 325.926 236.984C326.577 236.984 326.935 237.196 327 237.619ZM329.783 253.879C329.783 250.884 328.449 249.387 325.779 249.387C323.143 249.387 321.824 250.965 321.824 254.123C321.824 255.783 322.264 257.508 323.143 259.299C324.054 261.057 325.275 262.456 326.805 263.498C327.456 262.424 328.107 260.943 328.758 259.055C329.441 257.134 329.783 255.409 329.783 253.879ZM371.434 265.207L371.336 268.82C371.336 271.001 371.629 272.092 372.215 272.092C372.443 272.092 372.638 272.01 372.801 271.848C372.996 271.652 373.745 270.92 375.047 269.65C376.349 268.348 377.716 266.997 379.148 265.598C383.543 261.236 386.538 258.208 388.133 256.516V261.984C380.353 269.667 375.389 274.436 373.24 276.291C370.831 278.374 368.667 279.416 366.746 279.416C363.686 279.416 362.156 277.105 362.156 272.482L362.84 263.205C362.84 262.261 362.579 261.512 362.059 260.959C360.952 259.722 357.615 259.104 352.049 259.104L351.756 260.422C349.575 270.188 347.329 276.047 345.018 278H337.449C337.872 274.452 341.714 259.283 348.973 232.492L352.537 219.211C354.067 213.514 355.483 209.868 356.785 208.273C357.599 207.297 358.624 206.776 359.861 206.711C361.131 206.646 362.384 206.613 363.621 206.613C364.891 206.613 365.688 206.678 366.014 206.809C364.777 211.333 362.612 218.82 359.52 229.27C356.46 239.719 354.93 244.992 354.93 245.09L371.922 236.984C373.842 236.984 375.405 237.652 376.609 238.986C377.814 240.321 378.416 241.77 378.416 243.332C378.416 244.862 378.286 246.099 378.025 247.043C377.765 247.954 377.472 248.752 377.146 249.436C376.821 250.119 376.268 250.803 375.486 251.486C374.738 252.137 374.087 252.658 373.533 253.049C372.98 253.439 372.101 253.895 370.896 254.416C368.39 255.49 366.632 256.206 365.623 256.564C364.614 256.89 364.028 257.085 363.865 257.15C363.702 257.215 363.556 257.264 363.426 257.297C366.811 257.297 369.041 258.143 370.115 259.836C370.994 261.203 371.434 262.993 371.434 265.207ZM352.342 255.686H355.613C358.576 255.686 361.18 255.148 363.426 254.074C367.625 252.121 369.725 249.598 369.725 246.506C369.725 243.381 368.455 241.818 365.916 241.818C364.744 241.818 363.117 242.567 361.033 244.064C358.982 245.529 357.062 247.385 355.271 249.631C353.514 251.877 352.537 253.895 352.342 255.686ZM398.777 277.658C397.671 278.114 396.45 278.521 395.115 278.879C393.813 279.237 392.495 279.416 391.16 279.416C389.858 279.416 388.475 279.286 387.01 279.025C385.577 278.765 384.161 278.342 382.762 277.756C379.572 276.454 377.977 274.208 377.977 271.018C377.977 269.748 378.449 268.299 379.393 266.672C380.337 265.044 381.362 263.612 382.469 262.375C383.608 261.138 384.943 259.722 386.473 258.127C388.003 256.532 389.044 255.393 389.598 254.709C388.719 252.528 388.279 250.152 388.279 247.58C388.279 243.771 389.451 240.63 391.795 238.156C394.139 235.65 397.638 234.396 402.293 234.396C404.344 234.396 405.369 234.966 405.369 236.105C405.369 238.124 404.49 239.702 402.732 240.842C401.007 241.949 399.152 242.502 397.166 242.502C398.273 245.855 400.145 248.866 402.781 251.535C403.758 252.577 404.702 253.57 405.613 254.514C407.729 256.662 408.787 258.518 408.787 260.08C408.787 262.489 407.648 265.256 405.369 268.381L419.871 256.516V261.887C419.48 262.212 418.504 263.059 416.941 264.426C415.411 265.793 414.288 266.786 413.572 267.404C412.889 267.99 411.749 268.918 410.154 270.188C408.592 271.457 407.322 272.434 406.346 273.117C405.402 273.768 404.181 274.566 402.684 275.51C401.186 276.454 399.884 277.17 398.777 277.658ZM391.697 258.518C391.437 258.811 390.444 259.738 388.719 261.301C384.878 264.719 382.957 267.355 382.957 269.211C382.957 271.034 383.901 272.58 385.789 273.85C387.677 275.087 389.712 275.705 391.893 275.705C394.074 275.705 395.831 275.347 397.166 274.631C398.501 273.882 399.168 272.938 399.168 271.799C399.168 270.66 399.021 269.634 398.729 268.723C398.436 267.811 397.964 266.867 397.312 265.891C396.694 264.882 396.141 264.068 395.652 263.449C395.197 262.798 394.497 261.919 393.553 260.812C392.609 259.673 391.99 258.908 391.697 258.518Z" fill="#408AFF"/>
</svg>
